<svg width="27" height="29" viewBox="0 0 27 29" fill="none" xmlns="http://www.w3.org/2000/svg">
    <path d="M26.4 24.4517V4.78246C26.4 3.16055 26.4 2.3496 26.0638 1.86972C25.7704 1.45089 25.3182 1.17544 24.8161 1.1097C24.2414 1.03444 23.5381 1.41526 22.1311 2.17708L22.1272 2.17923L3.96449 12.0138C2.40345 12.8591 1.62292 13.2818 1.36714 13.8446C1.14432 14.3348 1.14432 14.8994 1.36714 15.3897C1.62292 15.9524 2.40345 16.3751 3.96449 17.2204L22.1272 27.055L22.1322 27.0577C23.5384 27.8191 24.2415 28.1998 24.8161 28.1246C25.3182 28.0588 25.7704 27.7834 26.0638 27.3645C26.4 26.8847 26.4 26.0736 26.4 24.4517Z" fill="#484848" stroke="#484848" stroke-width="1.2" stroke-linecap="round" stroke-linejoin="round"/>
</svg>
