<svg width="20" height="21" viewBox="0 0 20 21" fill="none" xmlns="http://www.w3.org/2000/svg">
    <path fill-rule="evenodd" clip-rule="evenodd" d="M8.46119 0C7.51789 0 6.73101 0.699341 6.64863 1.61092C6.47641 3.51684 6.43283 5.43125 6.51801 7.34192C6.41518 7.34859 6.31237 7.35557 6.20957 7.36284L4.39333 7.49127C3.23245 7.57336 2.5835 8.82904 3.21023 9.78051C4.54685 11.8097 6.26913 13.5738 8.28526 14.9787L9.0129 15.4858C9.60285 15.8969 10.3974 15.8969 10.9874 15.4858L11.715 14.9787C13.7312 13.5738 15.4534 11.8097 16.7901 9.78051C17.4168 8.82904 16.7678 7.57336 15.607 7.49127L13.7907 7.36284C13.6879 7.35557 13.5851 7.34859 13.4823 7.34192C13.5675 5.43125 13.5239 3.51683 13.3517 1.61091C13.2693 0.699339 12.4824 0 11.5391 0H8.46119ZM8.39241 8.11999C8.25376 6.00596 8.27965 3.88471 8.46992 1.77429H11.5304C11.7206 3.88471 11.7465 6.00596 11.6079 8.11999C11.5923 8.357 11.6754 8.59016 11.8385 8.76728C12.0016 8.94441 12.231 9.05071 12.4755 9.06239C12.8698 9.08123 13.2639 9.10458 13.6578 9.13243L14.9768 9.2257C13.8068 10.8974 12.3417 12.3574 10.6479 13.5377L10.0001 13.9891L9.35236 13.5377C7.65854 12.3574 6.19351 10.8974 5.02349 9.2257L6.34254 9.13243C6.73638 9.10458 7.13047 9.08123 7.52474 9.06239C7.76926 9.0507 7.99874 8.9444 8.16182 8.76728C8.3249 8.59016 8.40796 8.357 8.39241 8.11999Z" fill="black"/>
    <path d="M2.37908 16.2643C2.37908 15.7743 1.96964 15.3771 1.46456 15.3771C0.959492 15.3771 0.550049 15.7743 0.550049 16.2643V18.63C0.550049 19.7732 1.50542 20.7 2.68392 20.7H17.3162C18.4947 20.7 19.45 19.7732 19.45 18.63V16.2643C19.45 15.7743 19.0406 15.3771 18.5355 15.3771C18.0305 15.3771 17.621 15.7743 17.621 16.2643V18.63C17.621 18.7933 17.4845 18.9257 17.3162 18.9257H2.68392C2.51556 18.9257 2.37908 18.7933 2.37908 18.63V16.2643Z" fill="black"/>
</svg>
