<svg width="26" height="29" viewBox="0 0 26 29" fill="none" xmlns="http://www.w3.org/2000/svg">
    <path d="M1.19995 24.4514V4.78222C1.19995 3.16031 1.19995 2.34936 1.52012 1.86948C1.79956 1.45064 2.23027 1.1752 2.70844 1.10945C3.25579 1.0342 3.92561 1.41502 5.26555 2.17684L5.26933 2.17898L22.5671 12.0136C24.0538 12.8588 24.7972 13.2815 25.0408 13.8443C25.253 14.3345 25.253 14.8992 25.0408 15.3894C24.7972 15.9522 24.0538 16.3749 22.5671 17.2201L5.26933 27.0547L5.26456 27.0574C3.92528 27.8189 3.25566 28.1996 2.70844 28.1243C2.23027 28.0586 1.79956 27.7831 1.52012 27.3643C1.19995 26.8844 1.19995 26.0733 1.19995 24.4514Z" fill="#484848" stroke="#484848" stroke-width="1.2" stroke-linecap="round" stroke-linejoin="round"/>
</svg>
