<svg width="34" height="34" viewBox="0 0 34 34" fill="none" xmlns="http://www.w3.org/2000/svg">
    <path d="M15.3903 20.8138V20.6077C15.3956 19.6513 15.4854 18.8904 15.6598 18.325C15.8394 17.7596 16.0931 17.3052 16.4207 16.9617C16.7483 16.6129 17.1472 16.2933 17.6175 16.0026C17.9399 15.8018 18.2278 15.5826 18.4815 15.3448C18.7404 15.1017 18.9438 14.8322 19.0918 14.5363C19.2397 14.2351 19.3137 13.8996 19.3137 13.5297C19.3137 13.1122 19.216 12.7503 19.0205 12.4438C18.8249 12.1373 18.5607 11.8995 18.2278 11.7305C17.9002 11.5614 17.533 11.4768 17.1261 11.4768C16.7509 11.4768 16.3943 11.5587 16.0561 11.7225C15.7232 11.881 15.4458 12.1241 15.2238 12.4517C15.0072 12.7741 14.8857 13.1836 14.8592 13.6803H12.0375C12.064 12.6763 12.307 11.8361 12.7667 11.1598C13.2317 10.4834 13.8447 9.97613 14.6056 9.63795C15.3718 9.29977 16.2172 9.13068 17.142 9.13068C18.1512 9.13068 19.0389 9.3077 19.8051 9.66173C20.5766 10.0158 21.1764 10.5204 21.6044 11.1756C22.0377 11.8256 22.2543 12.597 22.2543 13.4901C22.2543 14.0924 22.1566 14.6314 21.961 15.107C21.7708 15.5826 21.4987 16.0053 21.1447 16.3752C20.7906 16.745 20.3705 17.0753 19.8844 17.3659C19.4564 17.6301 19.105 17.9049 18.8302 18.1902C18.5607 18.4756 18.3599 18.8111 18.2278 19.1969C18.101 19.5773 18.035 20.0476 18.0297 20.6077V20.8138H15.3903ZM16.7694 25.7597C16.2939 25.7597 15.8843 25.5906 15.5409 25.2524C15.1974 24.9142 15.0257 24.5021 15.0257 24.016C15.0257 23.5404 15.1974 23.1335 15.5409 22.7953C15.8843 22.4571 16.2939 22.2881 16.7694 22.2881C17.2397 22.2881 17.6466 22.4571 17.9901 22.7953C18.3388 23.1335 18.5132 23.5404 18.5132 24.016C18.5132 24.3383 18.4313 24.6315 18.2675 24.8958C18.1089 25.16 17.8976 25.3713 17.6334 25.5298C17.3745 25.6831 17.0865 25.7597 16.7694 25.7597Z" fill="#484848"/>
    <path d="M32.5829 16.5829C32.5829 25.1891 25.6062 32.1658 17.0001 32.1658C8.39391 32.1658 1.41724 25.1891 1.41724 16.5829C1.41724 7.9767 8.39391 1 17.0001 1C25.6062 1 32.5829 7.9767 32.5829 16.5829Z" stroke="#484848" stroke-width="2"/>
</svg>
