<svg width="50" height="50" viewBox="0 0 50 50" fill="none" xmlns="http://www.w3.org/2000/svg">
    <circle cx="25" cy="25" r="24" stroke="#777777" stroke-width="2"/>
    <path d="M19 31.6844V19.3155C19 18.2956 19 17.7856 19.2165 17.4838C19.4054 17.2204 19.6966 17.0472 20.0199 17.0059C20.39 16.9586 20.8429 17.198 21.7489 17.6771L21.7515 17.6785L33.4471 23.8629C34.4523 24.3945 34.9549 24.6603 35.1197 25.0142C35.2631 25.3224 35.2631 25.6775 35.1197 25.9858C34.9549 26.3397 34.4523 26.6055 33.4471 27.137L21.7515 33.3215L21.7482 33.3232C20.8427 33.802 20.3899 34.0414 20.0199 33.9941C19.6966 33.9528 19.4054 33.7795 19.2165 33.5162C19 33.2144 19 32.7043 19 31.6844Z" fill="#777777" stroke="#777777" stroke-width="2" stroke-linecap="round" stroke-linejoin="round"/>
</svg>
