<svg width="23" height="27" viewBox="0 0 23 27" fill="none" xmlns="http://www.w3.org/2000/svg">
    <path fill-rule="evenodd" clip-rule="evenodd" d="M10.803 0C10.2256 0 9.75758 0.464935 9.75758 1.03846V6.57692C9.75758 6.57674 9.75758 6.57711 9.75758 6.57692V16.6286C8.72436 15.7567 7.38614 15.2308 5.92424 15.2308C2.65237 15.2308 0 17.8654 0 21.1154C0 24.3654 2.65237 27 5.92424 27C9.19611 27 11.8485 24.3654 11.8485 21.1154C11.8485 20.9509 11.8417 20.788 11.8284 20.6269C11.8416 20.561 11.8485 20.4928 11.8485 20.4231L11.8485 7.61539H19.1667C21.2838 7.61539 23 5.91062 23 3.80769C23 1.70476 21.2838 0 19.1667 0H10.803ZM11.8485 5.53846H19.1667C20.129 5.53846 20.9091 4.76357 20.9091 3.80769C20.9091 2.85182 20.129 2.07692 19.1667 2.07692H11.8485V5.53846ZM5.92424 17.3077C3.80715 17.3077 2.09091 19.0125 2.09091 21.1154C2.09091 23.2183 3.80715 24.9231 5.92424 24.9231C8.04133 24.9231 9.75758 23.2183 9.75758 21.1154C9.75758 19.0125 8.04133 17.3077 5.92424 17.3077Z" fill="black"/>
</svg>
