<svg width="73" height="73" viewBox="0 0 73 73" fill="none" xmlns="http://www.w3.org/2000/svg">
    <circle cx="36.7999" cy="36.3" r="36" fill="#484848"/>
    <path d="M41.516 25.8255V46.2372V46.2373C41.516 46.9668 41.516 47.3316 41.5744 47.6349C41.8142 48.8807 42.756 49.8544 43.9617 50.1022C44.2553 50.1625 44.6083 50.1625 45.3144 50.1625C46.0205 50.1625 46.3743 50.1625 46.6679 50.1022C47.8735 49.8544 48.8165 48.8807 49.0563 47.6349C49.1142 47.3343 49.1142 46.9732 49.1142 46.2565V46.2372V25.8255V25.8062C49.1142 25.0895 49.1142 24.7285 49.0563 24.4278C48.8165 23.1821 47.8735 22.2083 46.6679 21.9605C46.3743 21.9001 46.0212 21.9001 45.3151 21.9001C44.609 21.9001 44.2553 21.9001 43.9617 21.9605C42.756 22.2083 41.8142 23.1821 41.5744 24.4278C41.516 24.7312 41.516 25.0959 41.516 25.8254V25.8255Z" fill="white"/>
    <path d="M24.7999 25.8255V46.2372C24.7999 46.9668 24.7999 47.3316 24.8583 47.6349C25.0981 48.8807 26.0399 49.8544 27.2456 50.1022C27.5392 50.1625 27.8923 50.1625 28.5984 50.1625C29.3045 50.1625 29.6582 50.1625 29.9518 50.1022C31.1574 49.8544 32.1004 48.8807 32.3403 47.6349C32.3981 47.3343 32.3981 46.9732 32.3981 46.2565V46.2372V25.8255V25.8063C32.3981 25.0895 32.3981 24.7285 32.3403 24.4278C32.1004 23.1821 31.1574 22.2083 29.9518 21.9605C29.6582 21.9001 29.3051 21.9001 28.599 21.9001C27.8929 21.9001 27.5392 21.9001 27.2456 21.9605C26.0399 22.2083 25.0981 23.1821 24.8583 24.4278C24.7999 24.7312 24.7999 25.0959 24.7999 25.8255Z" fill="white"/>
    <path d="M41.516 25.8255V46.2372V46.2373C41.516 46.9668 41.516 47.3316 41.5744 47.6349C41.8142 48.8807 42.756 49.8544 43.9617 50.1022C44.2553 50.1625 44.6083 50.1625 45.3144 50.1625C46.0205 50.1625 46.3743 50.1625 46.6679 50.1022C47.8735 49.8544 48.8165 48.8807 49.0563 47.6349C49.1142 47.3343 49.1142 46.9732 49.1142 46.2565V46.2372V25.8255V25.8062C49.1142 25.0895 49.1142 24.7285 49.0563 24.4278C48.8165 23.1821 47.8735 22.2083 46.6679 21.9605C46.3743 21.9001 46.0212 21.9001 45.3151 21.9001C44.609 21.9001 44.2553 21.9001 43.9617 21.9605C42.756 22.2083 41.8142 23.1821 41.5744 24.4278C41.516 24.7312 41.516 25.0959 41.516 25.8254V25.8255Z" stroke="white"/>
    <path d="M24.7999 25.8255V46.2372C24.7999 46.9668 24.7999 47.3316 24.8583 47.6349C25.0981 48.8807 26.0399 49.8544 27.2456 50.1022C27.5392 50.1625 27.8923 50.1625 28.5984 50.1625C29.3045 50.1625 29.6582 50.1625 29.9518 50.1022C31.1574 49.8544 32.1004 48.8807 32.3403 47.6349C32.3981 47.3343 32.3981 46.9732 32.3981 46.2565V46.2372V25.8255V25.8063C32.3981 25.0895 32.3981 24.7285 32.3403 24.4278C32.1004 23.1821 31.1574 22.2083 29.9518 21.9605C29.6582 21.9001 29.3051 21.9001 28.599 21.9001C27.8929 21.9001 27.5392 21.9001 27.2456 21.9605C26.0399 22.2083 25.0981 23.1821 24.8583 24.4278C24.7999 24.7312 24.7999 25.0959 24.7999 25.8255Z" stroke="white"/>
</svg>
