<svg width="60" height="60" viewBox="0 0 60 60" fill="none" xmlns="http://www.w3.org/2000/svg">
    <circle cx="30" cy="30" r="30" fill="#484848"/>
    <path d="M22 38.0033V21.9965C22 20.6766 22 20.0166 22.2668 19.6261C22.4997 19.2853 22.8586 19.0611 23.2571 19.0076C23.7132 18.9464 24.2714 19.2563 25.388 19.8763L25.3911 19.878L39.806 27.8814C41.0449 28.5693 41.6644 28.9133 41.8674 29.3713C42.0442 29.7702 42.0442 30.2297 41.8674 30.6287C41.6644 31.0867 41.0449 31.4306 39.806 32.1185L25.3911 40.1219L25.3872 40.1241C24.2711 40.7438 23.7131 41.0536 23.2571 40.9924C22.8586 40.9389 22.4997 40.7147 22.2668 40.3739C22 39.9833 22 39.3233 22 38.0033Z" fill="white" stroke="#484848" stroke-linecap="round" stroke-linejoin="round"/>
</svg>
