<svg width="18" height="23" viewBox="0 0 18 23" fill="none" xmlns="http://www.w3.org/2000/svg">
    <path d="M14.5735 0.426144C11.1843 -0.142048 7.7059 -0.142048 4.31668 0.426144C3.07848 0.633724 2.09241 1.58429 1.84415 2.81682C0.706792 8.46324 0.644735 14.2735 1.66123 19.943L2.07508 22.2512C2.20269 22.9629 3.07038 23.2474 3.59461 22.7494L8.59003 18.0037C9.0692 17.5485 9.82101 17.5485 10.3002 18.0037L15.2956 22.7494C15.8198 23.2474 16.6875 22.9629 16.8151 22.2512L17.229 19.943C18.2455 14.2735 18.1834 8.46324 17.0461 2.81682C16.7978 1.58429 15.8117 0.633724 14.5735 0.426144Z" fill="#484848"/>
</svg>
