<svg width="19" height="23" viewBox="0 0 19 23" fill="none" xmlns="http://www.w3.org/2000/svg">
    <path d="M11.7456 0.965647C10.5173 -0.32188 8.48278 -0.321882 7.25449 0.96564L1.25508 7.25435C0.910526 7.61552 0.678994 8.07211 0.589653 8.5666C-0.138956 12.5994 -0.192738 16.7279 0.430565 20.7788L0.651242 22.213C0.720944 22.666 1.10536 23 1.55709 23H5.74921C6.09446 23 6.37434 22.7159 6.37434 22.3655V13.4827H12.6257V22.3655C12.6257 22.7159 12.9056 23 13.2509 23H17.4429C17.8946 23 18.2791 22.666 18.3488 22.213L18.5694 20.7788C19.1927 16.7279 19.139 12.5994 18.4103 8.5666C18.321 8.07211 18.0895 7.61552 17.7449 7.25435L11.7456 0.965647Z" fill="#484848"/>
</svg>
