<svg width="21" height="27" viewBox="0 0 21 27" fill="none" xmlns="http://www.w3.org/2000/svg">
    <path fill-rule="evenodd" clip-rule="evenodd" d="M16.0971 2.6388C12.3985 2.01058 8.60151 2.01058 4.90295 2.6388C4.20691 2.75702 3.65409 3.29883 3.51535 3.99671C2.25296 10.3464 2.18408 16.8804 3.31232 23.2559L3.54559 24.5741L8.78086 19.5351C9.74424 18.6078 11.2558 18.6078 12.2191 19.5351L17.4544 24.5741L17.6877 23.2559C18.8159 16.8804 18.747 10.3464 17.4847 3.99671C17.3459 3.29883 16.7931 2.75702 16.0971 2.6388ZM4.54921 0.501C8.48197 -0.167 12.518 -0.167 16.4508 0.501C18.0186 0.767301 19.2675 1.98669 19.582 3.56868C20.8975 10.1856 20.9693 16.9946 19.7935 23.6385L19.4776 25.4236C19.2125 26.9219 17.4096 27.5208 16.3203 26.4724L10.7456 21.1066C10.608 20.9741 10.392 20.9741 10.2544 21.1066L4.67967 26.4724C3.59041 27.5208 1.78751 26.9219 1.52236 25.4236L1.20645 23.6385C0.030727 16.9946 0.102505 10.1856 1.41802 3.56868C1.73254 1.98669 2.9814 0.767301 4.54921 0.501Z" fill="black"/>
</svg>
