<svg width="29" height="28" viewBox="0 0 29 28" fill="none" xmlns="http://www.w3.org/2000/svg">
    <path d="M13.2538 17.7929V17.6129C13.2584 16.7773 13.3369 16.1125 13.4892 15.6186C13.6462 15.1246 13.8678 14.7276 14.154 14.4275C14.4402 14.1228 14.7887 13.8435 15.1996 13.5896C15.4812 13.4142 15.7328 13.2226 15.9544 13.0149C16.1806 12.8025 16.3583 12.5671 16.4876 12.3086C16.6169 12.0454 16.6815 11.7523 16.6815 11.4291C16.6815 11.0644 16.5961 10.7482 16.4253 10.4804C16.2545 10.2127 16.0237 10.0049 15.7328 9.85722C15.4466 9.70949 15.1257 9.63563 14.7703 9.63563C14.4425 9.63563 14.1309 9.70719 13.8354 9.8503C13.5446 9.98879 13.3022 10.2011 13.1083 10.4874C12.9191 10.769 12.8129 11.1268 12.7898 11.5607H10.3246C10.3477 10.6836 10.5601 9.94955 10.9617 9.35864C11.3679 8.76773 11.9035 8.32455 12.5682 8.0291C13.2376 7.73364 13.9762 7.58592 14.7841 7.58592C15.6659 7.58592 16.4414 7.74057 17.1108 8.04987C17.7848 8.35918 18.3088 8.80005 18.6827 9.37249C19.0613 9.94032 19.2506 10.6143 19.2506 11.3945C19.2506 11.9208 19.1652 12.3917 18.9944 12.8071C18.8282 13.2226 18.5904 13.5919 18.2811 13.9151C17.9718 14.2383 17.6048 14.5268 17.1801 14.7807C16.8061 15.0115 16.4991 15.2516 16.2591 15.5009C16.0237 15.7501 15.8482 16.0433 15.7328 16.3803C15.622 16.7127 15.5643 17.1235 15.5597 17.6129V17.7929H13.2538ZM14.4587 22.114C14.0432 22.114 13.6854 21.9662 13.3853 21.6708C13.0853 21.3753 12.9352 21.0152 12.9352 20.5905C12.9352 20.175 13.0853 19.8196 13.3853 19.5241C13.6854 19.2287 14.0432 19.0809 14.4587 19.0809C14.8695 19.0809 15.225 19.2287 15.5251 19.5241C15.8298 19.8196 15.9821 20.175 15.9821 20.5905C15.9821 20.8721 15.9105 21.1283 15.7674 21.3592C15.6289 21.59 15.4443 21.7746 15.2135 21.9131C14.9873 22.047 14.7357 22.114 14.4587 22.114Z" fill="black"/>
    <path d="M26.9551 13.6975C26.9551 20.6412 21.3262 26.2701 14.3826 26.2701C7.43896 26.2701 1.81006 20.6412 1.81006 13.6975C1.81006 6.75391 7.43896 1.125 14.3826 1.125C21.3262 1.125 26.9551 6.75391 26.9551 13.6975Z" stroke="black" stroke-width="2.25"/>
</svg>
