<svg width="24" height="24" viewBox="0 0 24 24" fill="none" xmlns="http://www.w3.org/2000/svg">
    <path d="M10.398 14.1763V14.0332C10.4017 13.369 10.464 12.8406 10.5851 12.448C10.7099 12.0553 10.886 11.7397 11.1135 11.5012C11.3411 11.259 11.6181 11.037 11.9447 10.8352C12.1685 10.6958 12.3685 10.5435 12.5447 10.3784C12.7245 10.2096 12.8657 10.0224 12.9685 9.81693C13.0712 9.60777 13.1226 9.37475 13.1226 9.11789C13.1226 8.828 13.0547 8.57663 12.9189 8.3638C12.7832 8.15097 12.5997 7.98584 12.3685 7.86842C12.141 7.75099 11.886 7.69228 11.6034 7.69228C11.3429 7.69228 11.0952 7.74916 10.8604 7.86292C10.6292 7.973 10.4365 8.1418 10.2824 8.36931C10.132 8.59315 10.0476 8.87753 10.0292 9.22247H8.06969C8.08804 8.52526 8.25684 7.94181 8.57608 7.47211C8.899 7.00242 9.32466 6.65014 9.85307 6.41529C10.3852 6.18045 10.9723 6.06302 11.6144 6.06302C12.3153 6.06302 12.9318 6.18595 13.4639 6.43181C13.9996 6.67766 14.4161 7.0281 14.7133 7.48312C15.0142 7.93447 15.1647 8.47022 15.1647 9.09036C15.1647 9.50869 15.0968 9.88298 14.961 10.2132C14.8289 10.5435 14.6399 10.8371 14.3941 11.0939C14.1482 11.3508 13.8565 11.5801 13.5189 11.7819C13.2217 11.9654 12.9777 12.1562 12.7868 12.3544C12.5997 12.5525 12.4603 12.7856 12.3685 13.0534C12.2805 13.3176 12.2346 13.6442 12.2309 14.0332V14.1763H10.398ZM11.3557 17.611C11.0255 17.611 10.7411 17.4935 10.5026 17.2587C10.2641 17.0238 10.1448 16.7376 10.1448 16.4C10.1448 16.0698 10.2641 15.7872 10.5026 15.5524C10.7411 15.3175 11.0255 15.2001 11.3557 15.2001C11.6823 15.2001 11.9649 15.3175 12.2034 15.5524C12.4456 15.7872 12.5667 16.0698 12.5667 16.4C12.5667 16.6239 12.5098 16.8275 12.396 17.011C12.286 17.1945 12.1392 17.3413 11.9557 17.4513C11.7759 17.5578 11.5759 17.611 11.3557 17.611Z" fill="#484848"/>
    <path d="M22.0318 11.5159C22.0318 17.3237 17.3236 22.0318 11.5159 22.0318C5.70812 22.0318 1 17.3237 1 11.5159C1 5.70813 5.70812 1 11.5159 1C17.3236 1 22.0318 5.70813 22.0318 11.5159Z" stroke="#484848" stroke-width="2"/>
</svg>
