<svg width="21" height="23" viewBox="0 0 21 23" fill="none" xmlns="http://www.w3.org/2000/svg">
    <path fill-rule="evenodd" clip-rule="evenodd" d="M12.4246 2.66652C11.3329 1.61903 9.60939 1.61903 8.51776 2.66652L2.71651 8.23315C2.57437 8.36954 2.47876 8.5472 2.44323 8.74096C1.74839 12.5302 1.6971 16.4094 2.29151 20.2156L2.43261 21.1191H6.16489V13.3305C6.16489 12.8111 6.58594 12.3901 7.10534 12.3901H13.837C14.3564 12.3901 14.7774 12.8111 14.7774 13.3305V21.1191H18.5097L18.6508 20.2156C19.2452 16.4094 19.1939 12.5302 18.4991 8.74096C18.4636 8.5472 18.368 8.36954 18.2258 8.23315L12.4246 2.66652ZM7.21549 1.30936C9.03488 -0.436452 11.9075 -0.436452 13.7268 1.30936L19.5281 6.87599C19.9551 7.28577 20.2424 7.81956 20.3492 8.40171C21.0821 12.3988 21.1362 16.4908 20.5092 20.5059L20.2825 21.9573C20.1888 22.5575 19.6718 23 19.0643 23H13.837C13.3176 23 12.8965 22.5789 12.8965 22.0595V14.271H8.04579V22.0595C8.04579 22.5789 7.62474 23 7.10534 23H1.87803C1.27052 23 0.75354 22.5575 0.659802 21.9573L0.433138 20.5059C-0.19389 16.4908 -0.139786 12.3988 0.593176 8.40171C0.699928 7.81956 0.987184 7.28577 1.41424 6.87599L7.21549 1.30936Z" fill="#484848"/>
</svg>
