<svg width="23" height="27" viewBox="0 0 23 27" fill="none" xmlns="http://www.w3.org/2000/svg">
    <path fill-rule="evenodd" clip-rule="evenodd" d="M 10.803 0 C 10.2256 0 9.7576 0.4649 9.7576 1.0385 V 6.5769 C 9.7576 6.5767 9.7576 6.5771 9.7576 6.5769 V 16.6286 C 8.7244 15.7567 7.3861 15.2308 5.9242 15.2308 C 2.6524 15.2308 0 17.8654 0 21.1154 C 0 24.3654 2.6524 27 5.9242 27 C 9.1961 27 11.8485 24.3654 11.8485 21.1154 C 11.8485 20.9509 11.8417 20.788 11.8284 20.6269 C 11.8416 20.561 11.8485 20.4928 11.8485 20.4231 L 11.8485 7.6154 H 19.1667 C 21.2838 7.6154 23 5.9106 23 3.8077 C 23 1.7048 21.2838 0 19.1667 0 H 10.803 Z Z Z" fill="black"/>
</svg>
